<svg width="100" height="100" viewBox="0 0 100 100" fill="none" xmlns="http://www.w3.org/2000/svg">
<path d="M36.8354 44.16H39.1154L37.2674 51H34.1354L32.2754 44.16H34.5674L35.6714 49.512H35.7314L36.8354 44.16ZM42.5124 51L42.3204 50.244C41.9524 50.844 41.4404 51.144 40.7844 51.144C40.2484 51.144 39.8084 50.996 39.4644 50.7C39.1284 50.396 38.9604 49.972 38.9604 49.428C38.9604 49.092 39.0564 48.8 39.2484 48.552C39.4484 48.296 39.7204 48.116 40.0644 48.012C40.5124 47.884 41.2044 47.812 42.1404 47.796C42.1404 47.268 42.1164 46.988 42.0684 46.956C42.0284 46.924 41.9004 46.908 41.6844 46.908C41.5484 46.908 41.3604 46.916 41.1204 46.932C40.7364 46.948 40.2164 46.992 39.5604 47.064C39.4964 46.632 39.4484 46.168 39.4164 45.672C39.8404 45.584 40.2844 45.512 40.7484 45.456C41.2124 45.392 41.6284 45.36 41.9964 45.36C42.6364 45.36 43.1164 45.468 43.4364 45.684C43.7564 45.892 43.9644 46.168 44.0604 46.512C44.1564 46.856 44.2004 47.292 44.1924 47.82L44.1804 49.584L44.2164 51H42.5124ZM41.4804 49.8C41.6884 49.8 41.9084 49.76 42.1404 49.68V48.792H42.0444C41.4524 48.792 41.1244 48.824 41.0604 48.888C41.0204 48.928 40.9884 48.988 40.9644 49.068C40.9484 49.148 40.9404 49.224 40.9404 49.296C40.9404 49.488 40.9844 49.62 41.0724 49.692C41.1604 49.764 41.2964 49.8 41.4804 49.8ZM50.987 51H48.755L47.615 48.756C47.503 48.524 47.355 48.376 47.171 48.312V51H45.119V43.8L47.171 43.716V47.808C47.363 47.728 47.527 47.564 47.663 47.316L48.683 45.48L50.927 45.468L49.763 47.34C49.579 47.636 49.379 47.872 49.163 48.048C49.347 48.248 49.555 48.552 49.787 48.96L50.987 51ZM54.0876 51.156C53.1276 51.156 52.4076 50.932 51.9276 50.484C51.4556 50.028 51.2196 49.312 51.2196 48.336C51.2196 47.8 51.2676 47.332 51.3636 46.932C51.4676 46.524 51.5916 46.24 51.7356 46.08C51.9196 45.872 52.2556 45.7 52.7436 45.564C53.2396 45.428 53.7036 45.36 54.1356 45.36C55.1676 45.36 55.9036 45.58 56.3436 46.02C56.7836 46.46 57.0036 47.164 57.0036 48.132C57.0036 49.172 56.7676 49.936 56.2956 50.424C55.8236 50.912 55.0876 51.156 54.0876 51.156ZM54.1236 49.752C54.4356 49.752 54.6396 49.644 54.7356 49.428C54.8316 49.204 54.8796 48.812 54.8796 48.252C54.8796 47.86 54.8596 47.56 54.8196 47.352C54.7796 47.136 54.7036 46.98 54.5916 46.884C54.4876 46.78 54.3236 46.728 54.0996 46.728C53.7796 46.728 53.5956 46.756 53.5476 46.812C53.4836 46.868 53.4316 47.044 53.3916 47.34C53.3516 47.636 53.3316 47.944 53.3316 48.264C53.3316 48.808 53.3836 49.192 53.4876 49.416C53.5996 49.64 53.8116 49.752 54.1236 49.752ZM57.8229 43.8L59.8749 43.716V51H57.8229V43.8ZM64.1804 51L63.9884 50.244C63.6204 50.844 63.1084 51.144 62.4524 51.144C61.9164 51.144 61.4764 50.996 61.1324 50.7C60.7964 50.396 60.6284 49.972 60.6284 49.428C60.6284 49.092 60.7244 48.8 60.9164 48.552C61.1164 48.296 61.3884 48.116 61.7324 48.012C62.1804 47.884 62.8724 47.812 63.8084 47.796C63.8084 47.268 63.7844 46.988 63.7364 46.956C63.6964 46.924 63.5684 46.908 63.3524 46.908C63.2164 46.908 63.0284 46.916 62.7884 46.932C62.4044 46.948 61.8844 46.992 61.2284 47.064C61.1644 46.632 61.1164 46.168 61.0844 45.672C61.5084 45.584 61.9524 45.512 62.4164 45.456C62.8804 45.392 63.2964 45.36 63.6644 45.36C64.3044 45.36 64.7844 45.468 65.1044 45.684C65.4244 45.892 65.6324 46.168 65.7284 46.512C65.8244 46.856 65.8684 47.292 65.8604 47.82L65.8484 49.584L65.8844 51H64.1804ZM63.1484 49.8C63.3564 49.8 63.5764 49.76 63.8084 49.68V48.792H63.7124C63.1204 48.792 62.7924 48.824 62.7284 48.888C62.6884 48.928 62.6564 48.988 62.6324 49.068C62.6164 49.148 62.6084 49.224 62.6084 49.296C62.6084 49.488 62.6524 49.62 62.7404 49.692C62.8284 49.764 62.9644 49.8 63.1484 49.8ZM69.3309 48.732C69.3309 48.876 69.3349 49.028 69.3429 49.188C69.3509 49.34 69.3749 49.436 69.4149 49.476C69.4709 49.532 69.6669 49.56 70.0029 49.56L70.4109 49.548C70.4829 49.932 70.5189 50.376 70.5189 50.88C70.3669 50.936 70.1429 50.988 69.8469 51.036C69.5589 51.084 69.2829 51.108 69.0189 51.108C68.4669 51.108 68.0389 50.988 67.7349 50.748C67.4389 50.5 67.2909 50.12 67.2909 49.608V46.656H66.3909V45.564L67.2909 45.48L67.8309 44.16L69.3309 44.076V45.48H70.6029V46.656H69.3309V48.732Z" fill="black"/>
<path d="M51 41.0986C54.3333 34.932 86.5 20.0986 74 40.0986C74 36.0986 74 27.5986 51 41.0986Z" fill="#FFD700"/>
<path d="M50.6154 52.8983C46.8386 58.8037 13.6703 71.2368 27.6041 52.2079C27.3106 56.1971 26.6869 64.6742 50.6154 52.8983Z" fill="#FFD700"/>
</svg>
